<?xml version="1.0" encoding="utf-8"?>
<!-- Generator: Adobe Illustrator 23.0.2, SVG Export Plug-In . SVG Version: 6.00 Build 0)  -->
<svg version="1.1" id="Layer_1" xmlns="http://www.w3.org/2000/svg" xmlns:xlink="http://www.w3.org/1999/xlink" x="0px" y="0px"
	 viewBox="0 0 14400 14400" style="enable-background:new 0 0 14400 14400;" xml:space="preserve">
<style type="text/css">
	.st0{fill:none;stroke:#FF0000;stroke-width:9;stroke-miterlimit:10;}
</style>
<g>
	<path class="st0" d="M9971.2,11493.04c0,0-83.84,557.52-620.4,830s-1232.42,968.33-1840.25,934.79s-1006.06-54.5-1006.06-54.5
		s-92.22-167.68-486.26-209.59c-394.04-41.92-507.22,117.37-725.2-163.48s-448.53-83.84-448.53-83.84s-138.33,129.95-238.94-155.1
		c0,0-71.26,184.44,0,314.39s-2112.72-2074.99-1588.73-3391.25c0,0,297.63-79.65,440.15,71.26
		c142.52,150.91,310.2-79.65,536.56,46.11c226.36,125.76,394.04,100.61,674.9,75.46c280.86-25.15,494.64,163.48,612.02,121.56
		c117.37-41.92-12.58,184.44,184.44,243.13c197.02,58.69,1098.28,209.59,1877.97,1123.43c0,0,41.92-297.63,167.68-188.64
		c125.76,108.99,238.94,767.12,1286.91,741.97S9971.2,11493.04,9971.2,11493.04z"/>
</g>
<g>
	<path class="st0" d="M3200.37,10983.3"/>
</g>
<g>
	<path class="st0" d="M9971.2,11474.52c0,0,377.55-84.33,397.02-369.77c132.99,16.22,411.94-35.68,583.85-398.96
		c0,0-327.61,77.85-353.55-418.43c-25.95-496.27-330.85-1300.69-759.01-1229.33s-1855.35,752.52-2377.57,499.52
		c0,0,129.75,353.55-197.86,541.68c-327.61,188.13-163.72-20.75-1379.31,93.42"/>
</g>
<g>
	<path class="st0" d="M9800.59,9053.58c0,0,992.55-443.17,1323.4-628.06c0,0,1449.9,122.06,1602.35,314.03
		c152.45,191.97,100.55,241.47-61.63,314.03s-674.67-60.43-736.3,195.82s71.36,178.4-120.01,544.93
		c-191.37,366.53-587.1,859.56-856.32,911.46"/>
</g>
<g>
	<path class="st0" d="M9417.84,1933.62c0,0,227.05-300.25-298.41-721.92s-606.56-421.67-1355.83-136.23
		s-830.37,437.89-1044.45,395.72c-214.08-42.17-220.57-74.6-486.54,74.6s-775.23,278.95-956.87,201.1
		c-181.64-77.85-1401.24,431.4-1560.18,697.38c-158.94,265.98-428.16-223.81-843.34,132.99s-499.52,668.19-963.36,733.06
		c-463.84,64.87-733.06,866.05-733.06,866.05s126.5,291.93,32.44,502.76c-94.07,210.84-71.36,350.31-71.36,350.31
		s-19.46,609.8-136.23,784.96c-116.77,175.16,337.34,765.49,499.52,1047.69s278.95,781.71,295.17,836.85
		c0,0,175.16,541.68,557.9,746.03c382.75,204.35,55.14,434.64,243.27,554.66c188.13,120.01,208.71,534.59,420.33,514.83"/>
</g>
<g>
	<path class="st0" d="M1700.02,7357.74c0-7.95,189.37-395.1,111.53-602.69c-77.85-207.59-64.87-369.77,58.39-587.1
		s632.51-877.18,645.48-988.39c12.97-111.2,1443.41,1296.53,1858.59,1429.52c415.18,132.99,1024.98,684.4,1456.39,882.26
		c431.4,197.86,1336.37,434.65,1748.31,444.38c411.94,9.73,736.3,188.13,969.84,116.77"/>
</g>
<g>
	<path class="st0" d="M8370.15,8069.3c0,0-859.56,67.53-1005.52,158.35c-145.96,90.82-422.6,116.77-527.56,58.39
		c-104.95-58.39-361.2-94.07-481.21-58.39c-120.01,35.68-311.39-16.22-447.62-25.95c-136.23-9.73-363.29-97.31-480.06,100.55
		c-116.77,197.86-51.9,120.01-240.03,38.92c-188.13-81.09-496.27,21.36-600.07-93.12c-103.8-114.47-489.79-312.33-489.79-312.33
		s-693.72-1013.13-521.81-1892.15"/>
</g>
<g>
	<path class="st0" d="M4824.92,8307.27c0,0-35.2,112.24,101.21,253.05s1122.08,849.26,1672.12,778.85
		c550.04-70.4,532.44-189.21,673.25-202.41s105.61,114.41,369.63-193.61c0,0,48.72-44.03,139.47,83.28c0,0,62.3-77.2,197.74-1.35
		c135.44,75.84,128.66,169.29,250.56,173.36c121.89,4.06,318.27-153.04,480.8-111.06c162.52,41.98,277.64,36.57,480.8-158.46
		s255.97-79.91,360.26-266.81c104.29-186.9,96.16-44.69,224.82-139.5c128.66-94.8,154.4-369.74,339.94-352.13
		c185.55,17.61,639.26-78.55,608.11-413.08c-31.15-334.53-55.53-692.08-323.69-663.63c-265.52,28.16-608.05,361.71-871.14,339.36
		c-2.62-0.22-5.23-0.48-7.83-0.77c0,0,55.53,120.54-369.74,311.5c-425.27,190.96-613.53,311.76-613.53,311.76"/>
</g>
<g>
	<path class="st0" d="M10370.65,7098.06c0,0,139.06-147.44,186.96-265.02c47.9-117.58,213.38-111.05,361.45-232.98
		c148.06-121.93,80.56-63.14,189.43-313.55s287.42-289.59,239.51-607.49c-47.9-317.9,17.42-309.19,91.45-452.9
		c74.03-143.71-10.89,74.03-158.95-230.8c-148.06-304.84-472.5-790.4-472.5-790.4s-95.81-287.42-117.58-559.59
		c-21.77-272.17-337.5-439.83-418.06-568.3c-80.56-128.47-30.48,87.1-108.87,34.84c-78.39-52.26-788.22-579.19-1295.55-335.32
		c0,0,23.95-280.88-283.06-232.98c-307.01,47.9-818.7-19.6-1029.91,37.02s-644.46-243.35-644.46-243.35
		c240.03-360.04,1647.76-366.53,2241.34-402.21c593.58-35.68,1287.72,619.53,1287.72,619.53s-969.84,107.04,68.12-9.73
		s1057.42,648.72,960.11,1015.25s158.94,1187.17,963.35,833.61c804.42-353.55,256.25-107.04,246.52,379.5
		s356.8,132.99,223.81,463.84c-132.99,330.85,103.8,541.68-16.22,1518.01s-1761.29,1670.46-1761.29,1670.46"/>
</g>
<g>
	<path class="st0" d="M6910.52,2337.24c0,0-470.37-270.52-635.85-46.25s-1090.88,790.4-1278.13,775.15
		c0,0-95.81,611.85-289.59,988.54s-52.26,1297.73,448.54,1846.43s502.35,670.64,611.53,603.14
		c109.19-67.5,2.49,123.06,148.38,117.06c145.89-6.01,243.87,192.13,359.27,137.7c115.4-54.44,1238.94,348.38,1363.05,193.79
		c124.11-154.6,204.68-252.58,276.53-193.79c71.85,58.79,209.03-54.44,209.03-54.44s-37.02-30.48,111.05,15.24
		c148.06,45.73,224.27,67.5,274.35,37.02c50.08-30.48,67.5-219.92,407.17-126.29s158.95,135,246.05,32.66
		c87.1-102.34,256.93-74.03,256.93-74.03s232.98,32.66,365.8-185.08c132.82-217.74,135.92-831.77,135.92-831.77
		s168.91-56.61,247.3,141.53s104.51,444.19-163.3,722.9c-267.82,278.71-15.24,224.27-265.64,418.06
		c-250.4,193.79-8.71,193.84-468.14,237.36s-420.24-80.59-522.58,115.38c-102.34,195.97-313.55,757.73-897.09,772.98"/>
</g>
<g>
	<path class="st0" d="M8839.51,7095.92c0,0-398.33,164.75-561.63,139.28c-163.3-25.47-172.01-14.58-442.01,118.24
		c-270,132.82-468.14,145.89-516.04,130.64s-89.27,54.44-89.27,54.44s-84.92-87.1-274.35-39.19s-154.6-154.6-313.55-102.34
		c-158.95,52.26-411.53,82.74-877.49-337.5c-465.96-420.24-860.07-694.59-1049.51-1217.17c0,0-777.26-1716.01-1089.57-1879.61
		s59.49-549.3,380.72-627.12c321.24-77.82,309.34,152.18,401.55,0c92.21-152.18,497.85,25.8,486.88,198.56"/>
</g>
<g>
	<path class="st0" d="M6235.89,7377.42c0,13.04,355.61,443.85,778.56,477.76"/>
</g>
<g>
	<path class="st0" d="M7604.33,6975.03c5.22-5.22,468.87,108.41,573.38,25.67c104.51-82.74,74.03-45.73,167.66-45.73
		s413.71-84.92,476.85-141.53s121.93,8.71,198.14,0c76.21-8.71-51.48,213.64-198.84,289.72"/>
</g>
<g>
	<path class="st0" d="M10182.55,6171.36c37.56,0,808.36-1106.37,738.69-1768.3"/>
</g>
<g>
	<path class="st0" d="M8123.28,6704.57c0,0-613.84-231.86-778.55-417.28c-194.83,84.71-179.77-75.3-350.13-175.07
		c-170.36-99.77-310.6-327.54-404.73-411.31s-10.35-131.77-77.18-214.6c-66.83-82.83-97.89-122.36-79.06-219.3
		c18.82-96.95,35.77-512.97,206.13-488.49s482.85,232.48,576.03,219.3c93.18-13.18,92.24,68.71-223.07,278.6
		c-258.83,172.3-337.54,439.1-197.07,498.43c4.51,1.91,9.25,3.6,14.22,5.07c28.76,8.5,65.16,9.48,109.44,1
		c289.9-55.53,1338.42-300.25,1449.48-401.9c111.06-101.65,992.05-656.97,1129.46-541.2c137.42,115.77,125.18,126.12-136.48,228.72
		c-261.66,102.59-574.14,473.43-454.61,656.97c119.53,183.54-240.95,371.78-941.22,291.78c0,0-1043.59-103.9-1192.5-252.82"/>
</g>
<g>
	<path class="st0" d="M8548.55,6015.85c0.03,0,1242.89-27.94,1036.38,95.28c-206.51,123.23-293.67-10.52-359.79,70.63
		c-66.12,81.15-311.07,70.63-410.25,18.03s-278.01-28.44-278.01-28.44s-177.32-1.62-368.17-46.7
		c-190.85-45.08-625.5-173.82-767.33-183.83"/>
</g>
<g>
	<path class="st0" d="M6910.52,6051.64c5.43,5.43,133.8,69.32,328.15,28.83c194.36-40.49,159.94,125.52,255.09,119.45
		c95.15-6.07,192.33-50.61,196.38,26.32c4.05,76.93,93.13-85.03,147.79,68.83c54.66,153.87,133.62,176.14,236.87,139.69
		c103.25-36.44,48.59,87.06,259.14,117.42c210.55,30.37,307.14-50.37,505.55,60.98"/>
</g>
<g>
	<path class="st0" d="M6013.74,6646.37c-3.61-3.61-287.1-953.29-588.6-1388.57c-301.5-435.28-579.67-1567.97-490.88-1880.34"/>
</g>
<g>
	<path class="st0" d="M5334.02,5104.54c5.44,5.44,230.88,326.97,338.7,277.05s-13.98-160.46,173.71-202.03
		c35.64-7.89,68.4-16.3,98.36-25.6c127.83-39.65,204.74-95.39,237.09-195.67c39.93-123.79,79.87,83.86,199.67-55.91
		c119.8-139.77,169.72-297.51-31.95-165.72c0,0-389.17,308.95-539.1,458.88"/>
</g>
<g>
	<path class="st0" d="M5652.88,5386.55c0,0-135.9-132.75-129.91-394.31c5.99-261.57,107.82-1032.29,221.63-1235.95
		c113.81-203.66,155.74-253.58,151.75-347.42c-3.99-93.84,113.81-73.88,189.69-191.68s91.85-313.48,205.66-243.6
		c113.81,69.88,593.01,151.75,501.17,21.96c-91.85-129.78-840.6-255.58-1148.09-19.97s-749.16,436.4-716.01,745.32"/>
</g>
<g>
	<path class="st0" d="M6571.23,3065.44c0,5.99-3.99,233.61-93.84,223.63s-293.51,357.41-71.88,658.91s820.64,331.45,818.64,630.95
		c0,0,141.76-21.96,137.77-145.76c-3.99-123.79,169.72,451.25,143.76,465.23c-25.96,13.98-211.65-92.43-255.58,113.52"/>
</g>
<g>
	<path class="st0" d="M7505.68,4898.4c0,0,83.86,213.65,183.69,91.85c99.83-121.8,165.72-585.03-233.61-854.58
		c0,0,215.64-141.76,279.54,73.88c63.89,215.64,267.56,1275.88,411.32,1052.25c0,0,434.69-642.93,358.11-958.41
		c-76.58-315.48-244.3-716.81-791.39-565.06c0,0,249.59-301.5,577.04-17.97s347.42-33.94,359.4,177.7
		c11.98,211.65,197.67,201.67,119.8,349.42c-77.87,147.75-47.92,358.25-71.88,439.69c-23.96,81.44-25.28,479.71,120.36,398.91"/>
</g>
<g>
	<path class="st0" d="M6693.88,3064.01c-4.72,0,265.45,495.82,616.92,469.52s463.43,103.42,659.7,67.25"/>
</g>
<g>
	<path class="st0" d="M6477.39,3289.07c0,0,101.77,823.08,235.67,739.39c133.9-83.68,153.02-289.31,215.19,5.97
		s28.69-173.34,169.76-202.04c141.07-28.69-52.6,298.87,62.17,444.72c114.77,145.85,153.66,162.79,63.68,289.41"/>
</g>
<g>
	<path class="st0" d="M8478,4596.65"/>
</g>
<g>
	<path class="st0" d="M8258.31,5080.23"/>
</g>
<g>
	<path class="st0" d="M3659.93,3985.1c5.3,5.3-207.06,382.14-151.69,489.22c0,0-149.13,398.57,40.87,740.63
		c0,0-211.55-11.9,74,294.47c285.54,306.36,130.87,662.19,1118.38,1195.16s1345.73,1068.26,2026.23,1087.65"/>
</g>
<g>
	<path class="st0" d="M3872.37,5940.83c0,0-912.35-386.45-897.03-1596.95c-214.52-358.78,191.53-592.1,210.69-966.42
		c19.15-374.32-87.44-527.55,266.56-638.64c354.01-111.09,516.79-410.38,607.78-561.45"/>
</g>
<g>
	<path class="st0" d="M5935.51,5080.23c0.56-0.56,57-286.16,0-526.09c-57-239.93,103.62-61.47,131.38-166.56
		c27.76-105.09,398.56-191.08,709.88,58.13s-201.19-261.18-371.26-497.74"/>
</g>
<g>
	<path class="st0" d="M10139.45,5658.16c16.96-18.17,344.87-1015.07-185.38-1673.06c-525.55-652.15-286.9-890.96-1057.01-895.15
		c-6.9-0.04-13.87-0.06-20.93-0.06c-795.38,0-795.38-244.19-1032.59-83.72c-237.22,160.47-1010.91,364.65-1075.82,177.09"/>
</g>
<path class="st0" d="M18359.51,2544.23"/>
</svg>
